<svg width="20" height="20" viewBox="0 0 20 20" fill="none" xmlns="http://www.w3.org/2000/svg">
<path d="M14.1667 11.1667V13.6667C14.1667 17 12.8333 18.3333 9.49999 18.3333H6.33332C2.99999 18.3333 1.66666 17 1.66666 13.6667V10.5C1.66666 7.16668 2.99999 5.83334 6.33332 5.83334H8.83332" stroke="#303E9F" stroke-linecap="round" stroke-linejoin="round"/>
<path d="M14.1667 11.1667H11.5C9.50001 11.1667 8.83334 10.5 8.83334 8.50001V5.83334L14.1667 11.1667Z" stroke="#303E9F" stroke-linecap="round" stroke-linejoin="round"/>
<path d="M9.66666 1.66666H13" stroke="#303E9F" stroke-linecap="round" stroke-linejoin="round"/>
<path d="M5.83334 4.16666C5.83334 2.78332 6.95001 1.66666 8.33334 1.66666H10.5167" stroke="#303E9F" stroke-linecap="round" stroke-linejoin="round"/>
<path d="M18.3333 6.66666V11.825C18.3333 13.1167 17.2833 14.1667 15.9917 14.1667" stroke="#303E9F" stroke-linecap="round" stroke-linejoin="round"/>
<path d="M18.3333 6.66666H15.8333C13.9583 6.66666 13.3333 6.04166 13.3333 4.16666V1.66666L18.3333 6.66666Z" stroke="#303E9F" stroke-linecap="round" stroke-linejoin="round"/>
</svg>
