<svg width="26" height="26" viewBox="0 0 26 26" fill="none" xmlns="http://www.w3.org/2000/svg">
<path d="M4.7009 10.2019C4.7009 5.9933 8.22555 2.6116 12.5357 2.6116C16.8459 2.6116 20.3705 5.9933 20.3705 10.2019C20.3705 12.661 19.354 14.8796 17.4509 16.2788C17.3195 16.3754 17.24 16.4951 17.2123 16.6127C17.151 16.8732 17.0831 17.175 17.0135 17.4988C16.9928 17.5953 16.9075 17.6644 16.8088 17.6644H13.5281C13.4127 17.6644 13.3192 17.5709 13.3192 17.4555V16.7619L14.4154 15.0402C14.6317 14.7004 14.5551 14.252 14.2384 14.0032L12.359 12.5273L13.1966 11.2117C13.429 10.8467 13.3215 10.3624 12.9565 10.13C12.5915 9.89763 12.1072 10.0051 11.8748 10.3701L10.6561 12.2844C10.4398 12.6242 10.5163 13.0726 10.8331 13.3213L12.7124 14.7973L11.8748 16.1129C11.7948 16.2386 11.7522 16.3846 11.7522 16.5337V17.4555C11.7522 17.5709 11.6587 17.6644 11.5433 17.6644H8.2626C8.16389 17.6644 8.07869 17.5953 8.05795 17.4988C7.98836 17.175 7.92047 16.8732 7.85912 16.6127C7.83143 16.4951 7.75193 16.3754 7.62057 16.2788C5.71747 14.8796 4.7009 12.661 4.7009 10.2019Z" fill="#FFC206"/>
<path d="M8.65071 19.2314C8.52057 19.2314 8.42215 19.3491 8.44428 19.4774C8.55312 20.1084 8.63354 20.676 8.65677 21.0599C8.72258 22.1476 9.52372 23.0435 10.595 23.275L10.7997 23.3192C11.943 23.5662 13.1284 23.5662 14.2717 23.3192L14.4764 23.275C15.5477 23.0435 16.3489 22.1476 16.4147 21.0599C16.4379 20.676 16.5183 20.1084 16.6272 19.4774C16.6493 19.3491 16.5509 19.2314 16.4207 19.2314H8.65071Z" fill="#FFC206"/>
</svg>
