<svg width="19" height="19" viewBox="0 0 19 19" fill="none" xmlns="http://www.w3.org/2000/svg">
<path d="M10.2708 3.43935C9.71355 3.1038 9.01646 3.1038 8.45921 3.43935L8.05627 3.68197C7.07861 4.27067 5.98105 4.63192 4.84486 4.73896L4.591 4.76288C4.08991 4.81009 3.70699 5.23078 3.70699 5.7341V7.01702C3.70699 9.1855 4.58736 11.2611 6.14644 12.7683L8.68698 15.2242C9.0651 15.5898 9.66491 15.5898 10.043 15.2242L12.5836 12.7683C14.1426 11.2611 15.023 9.1855 15.023 7.01701V5.7341C15.023 5.23078 14.6401 4.81009 14.139 4.76288L13.8851 4.73896C12.749 4.63192 11.6514 4.27067 10.6737 3.68197L10.2708 3.43935Z" fill="#303E9F"/>
</svg>
